<svg id="visual" viewBox="0 0 960 540" width="960" height="540" xmlns="http://www.w3.org/2000/svg" xmlns:xlink="http://www.w3.org/1999/xlink" version="1.1"><rect x="0" y="0" width="960" height="540" fill="#002233"></rect><path d="M0 339L22.8 357.7C45.7 376.3 91.3 413.7 137 421C182.7 428.3 228.3 405.7 274 402.7C319.7 399.7 365.3 416.3 411.2 426.7C457 437 503 441 548.8 436.8C594.7 432.7 640.3 420.3 686 408.8C731.7 397.3 777.3 386.7 823 389.7C868.7 392.7 914.3 409.3 937.2 417.7L960 426L960 541L937.2 541C914.3 541 868.7 541 823 541C777.3 541 731.7 541 686 541C640.3 541 594.7 541 548.8 541C503 541 457 541 411.2 541C365.3 541 319.7 541 274 541C228.3 541 182.7 541 137 541C91.3 541 45.7 541 22.8 541L0 541Z" fill="#0066FF" stroke-linecap="round" stroke-linejoin="miter"></path></svg>